# Rhino

g object_1
v 7.5 9.184850467946473e-16 0
v 5 -3.061616999114022e-16 45
v 7.355889797210693 1.463177442550659 0
v 4.903926372528076 0.9754515886306763 45
v 6.929096698760986 2.870125770568848 0
v 4.619397640228272 1.913417220115662 45
v 6.236021995544434 4.166776657104492 0
v 4.157348155975342 2.777851104736328 45
v 5.303300857543945 5.303300857543945 0
v 3.535533905029297 3.535533905029297 45
v 4.166776657104492 6.236021995544434 0
v 2.777851104736328 4.157348155975342 45
v 2.870125770568848 6.929096698760986 0
v 1.913417220115662 4.619397640228272 45
v 1.463177442550659 7.355889797210693 0
v 0.9754515886306763 4.903926372528076 45
v 4.592425233973236e-16 7.5 0
v 3.061616999114022e-16 5 45
v -1.463177442550659 7.355889797210693 0
v -0.9754515886306763 4.903926372528076 45
v -2.870125770568848 6.929096698760986 0
v -1.913417220115662 4.619397640228272 45
v -4.166776657104492 6.236021995544434 0
v -2.777851104736328 4.157348155975342 45
v -5.303300857543945 5.303300857543945 0
v -3.535533905029297 3.535533905029297 45
v -6.236021995544434 4.166776657104492 0
v -4.157348155975342 2.777851104736328 45
v -6.929096698760986 2.870125770568848 0
v -4.619397640228272 1.913417220115662 45
v -7.355889797210693 1.463177442550659 0
v -4.903926372528076 0.9754515886306763 45
v -7.5 1.836970093589295e-15 0
v -5 1.530808446617452e-15 45
v -7.355889797210693 -1.463177442550659 0
v -4.903926372528076 -0.9754515886306763 45
v -6.929096698760986 -2.870125770568848 0
v -4.619397640228272 -1.913417220115662 45
v -6.236021995544434 -4.166776657104492 0
v -4.157348155975342 -2.777851104736328 45
v -5.303300857543945 -5.303300857543945 0
v -3.535533905029297 -3.535533905029297 45
v -4.166776657104492 -6.236021995544434 0
v -2.777851104736328 -4.157348155975342 45
v -2.870125770568848 -6.929096698760986 0
v -1.913417220115662 -4.619397640228272 45
v -1.463177442550659 -7.355889797210693 0
v -0.9754515886306763 -4.903926372528076 45
v -1.377727676071089e-15 -7.5 0
v -9.184850467946473e-16 -5 45
v 1.463177442550659 -7.355889797210693 0
v 0.9754515886306763 -4.903926372528076 45
v 2.870125770568848 -6.929096698760986 0
v 1.913417220115662 -4.619397640228272 45
v 4.166776657104492 -6.236021995544434 0
v 2.777851104736328 -4.157348155975342 45
v 5.303300857543945 -5.303300857543945 0
v 3.535533905029297 -3.535533905029297 45
v 6.236021995544434 -4.166776657104492 0
v 4.157348155975342 -2.777851104736328 45
v 6.929096698760986 -2.870125770568848 0
v 4.619397640228272 -1.913417220115662 45
v 7.355889797210693 -1.463177442550659 0
v 4.903926372528076 -0.9754515886306763 45
v 7.5 9.184850467946473e-16 0
v 5 -3.061616999114022e-16 45
v 7.5 9.184850467946473e-16 0
v 7.355889797210693 -1.463177442550659 0
v 6.929096698760986 -2.870125770568848 0
v 6.236021995544434 -4.166776657104492 0
v 5.303300857543945 -5.303300857543945 0
v 4.166776657104492 -6.236021995544434 0
v 2.870125770568848 -6.929096698760986 0
v 1.463177442550659 -7.355889797210693 0
v -1.377727676071089e-15 -7.5 0
v -1.463177442550659 -7.355889797210693 0
v -2.870125770568848 -6.929096698760986 0
v -4.166776657104492 -6.236021995544434 0
v -5.303300857543945 -5.303300857543945 0
v -6.236021995544434 -4.166776657104492 0
v -6.929096698760986 -2.870125770568848 0
v -7.355889797210693 -1.463177442550659 0
v -7.5 1.836970093589295e-15 0
v -7.355889797210693 1.463177442550659 0
v -6.929096698760986 2.870125770568848 0
v -6.236021995544434 4.166776657104492 0
v -5.303300857543945 5.303300857543945 0
v -4.166776657104492 6.236021995544434 0
v -2.870125770568848 6.929096698760986 0
v -1.463177442550659 7.355889797210693 0
v 4.592425233973236e-16 7.5 0
v 1.463177442550659 7.355889797210693 0
v 2.870125770568848 6.929096698760986 0
v 4.166776657104492 6.236021995544434 0
v 5.303300857543945 5.303300857543945 0
v 6.236021995544434 4.166776657104492 0
v 6.929096698760986 2.870125770568848 0
v 7.355889797210693 1.463177442550659 0
v 5 -3.061616999114022e-16 45
v 4.903926372528076 0.9754515886306763 45
v 4.619397640228272 1.913417220115662 45
v 4.157348155975342 2.777851104736328 45
v 3.535533905029297 3.535533905029297 45
v 2.777851104736328 4.157348155975342 45
v 1.913417220115662 4.619397640228272 45
v 0.9754515886306763 4.903926372528076 45
v 3.061616999114022e-16 5 45
v -0.9754515886306763 4.903926372528076 45
v -1.913417220115662 4.619397640228272 45
v -2.777851104736328 4.157348155975342 45
v -3.535533905029297 3.535533905029297 45
v -4.157348155975342 2.777851104736328 45
v -4.619397640228272 1.913417220115662 45
v -4.903926372528076 0.9754515886306763 45
v -5 1.530808446617452e-15 45
v -4.903926372528076 -0.9754515886306763 45
v -4.619397640228272 -1.913417220115662 45
v -4.157348155975342 -2.777851104736328 45
v -3.535533905029297 -3.535533905029297 45
v -2.777851104736328 -4.157348155975342 45
v -1.913417220115662 -4.619397640228272 45
v -0.9754515886306763 -4.903926372528076 45
v -9.184850467946473e-16 -5 45
v 0.9754515886306763 -4.903926372528076 45
v 1.913417220115662 -4.619397640228272 45
v 2.777851104736328 -4.157348155975342 45
v 3.535533905029297 -3.535533905029297 45
v 4.157348155975342 -2.777851104736328 45
v 4.619397640228272 -1.913417220115662 45
v 4.903926372528076 -0.9754515886306763 45
vt 0.99853515625 0
vt 0.249711200594902 0
vt 0.99853515625 0.02442996017634869
vt 0.249711200594902 0.02442996017634869
vt 0.99853515625 0.04885992035269737
vt 0.249711200594902 0.04885992035269737
vt 0.99853515625 0.07328987866640091
vt 0.249711200594902 0.07328987866640091
vt 0.99853515625 0.09771984070539475
vt 0.249711200594902 0.09771984070539475
vt 0.99853515625 0.1221498027443886
vt 0.249711200594902 0.1221498027443886
vt 0.99853515625 0.1465797573328018
vt 0.249711200594902 0.1465797573328018
vt 0.99853515625 0.1710097193717957
vt 0.249711200594902 0.1710097193717957
vt 0.99853515625 0.1954396814107895
vt 0.249711200594902 0.1954396814107895
vt 0.99853515625 0.2198696434497833
vt 0.249711200594902 0.2198696434497833
vt 0.99853515625 0.2442996054887772
vt 0.249711200594902 0.2442996054887772
vt 0.99853515625 0.268729567527771
vt 0.249711200594902 0.268729567527771
vt 0.99853515625 0.2931595146656036
vt 0.249711200594902 0.2931595146656036
vt 0.99853515625 0.3175894916057587
vt 0.249711200594902 0.3175894916057587
vt 0.99853515625 0.3420194387435913
vt 0.249711200594902 0.3420194387435913
vt 0.99853515625 0.3664494156837463
vt 0.249711200594902 0.3664494156837463
vt 0.99853515625 0.390879362821579
vt 0.249711200594902 0.390879362821579
vt 0.99853515625 0.415309339761734
vt 0.249711200594902 0.415309339761734
vt 0.99853515625 0.4397392868995667
vt 0.249711200594902 0.4397392868995667
vt 0.99853515625 0.4641692638397217
vt 0.249711200594902 0.4641692638397217
vt 0.99853515625 0.4885992109775543
vt 0.249711200594902 0.4885992109775543
vt 0.99853515625 0.513029158115387
vt 0.249711200594902 0.513029158115387
vt 0.99853515625 0.537459135055542
vt 0.249711200594902 0.537459135055542
vt 0.99853515625 0.561889111995697
vt 0.249711200594902 0.561889111995697
vt 0.99853515625 0.5863190293312073
vt 0.249711200594902 0.5863190293312073
vt 0.99853515625 0.6107490062713623
vt 0.249711200594902 0.6107490062713623
vt 0.99853515625 0.6351789832115173
vt 0.249711200594902 0.6351789832115173
vt 0.99853515625 0.6596089601516724
vt 0.249711200594902 0.6596089601516724
vt 0.99853515625 0.6840388774871826
vt 0.249711200594902 0.6840388774871826
vt 0.99853515625 0.7084688544273377
vt 0.249711200594902 0.7084688544273377
vt 0.99853515625 0.7328988313674927
vt 0.249711200594902 0.7328988313674927
vt 0.99853515625 0.7573288083076477
vt 0.249711200594902 0.7573288083076477
vt 0.99853515625 0.781758725643158
vt 0.249711200594902 0.781758725643158
vt 0.124123178422451 0.5630006194114685
vt 0.09990794956684113 0.5606015920639038
vt 0.07662329822778702 0.5534965395927429
vt 0.05516403540968895 0.5419586896896362
vt 0.03635483235120773 0.5264312624931335
vt 0.02091852203011513 0.5075110793113709
vt 0.009448317810893059 0.4859251976013184
vt 0.002384995808824897 0.4625031650066376
vt 0 0.4381450414657593
vt 0.002384995808824897 0.413786917924881
vt 0.009448317810893059 0.3903648555278778
vt 0.02091852203011513 0.3687789738178253
vt 0.03635483235120773 0.3498587906360626
vt 0.05516403540968895 0.3343313932418823
vt 0.07662329822778702 0.3227935135364533
vt 0.09990794956684113 0.3156884908676148
vt 0.124123178422451 0.3132894337177277
vt 0.1483384072780609 0.3156884908676148
vt 0.1716230660676956 0.3227935135364533
vt 0.193082332611084 0.3343313932418823
vt 0.2118915170431137 0.3498587906360626
vt 0.2273278385400772 0.3687789738178253
vt 0.238798052072525 0.3903648555278778
vt 0.245861366391182 0.413786917924881
vt 0.248246356844902 0.4381450414657593
vt 0.245861366391182 0.4625031650066376
vt 0.238798052072525 0.4859251976013184
vt 0.2273278385400772 0.5075110793113709
vt 0.2118915170431137 0.5264312624931335
vt 0.193082332611084 0.5419586896896362
vt 0.1716230660676956 0.5534965395927429
vt 0.1483384072780609 0.5606015920639038
vt 0.08323706686496735 0.1664741337299347
vt 0.06699832528829575 0.1648747622966766
vt 0.05138362571597099 0.1601380854845047
vt 0.03699303045868874 0.1524461656808853
vt 0.02437956817448139 0.1420945674180985
vt 0.01402797177433968 0.1294811069965363
vt 0.006336046848446131 0.115090511739254
vt 0.001599379349499941 0.09947581589221954
vt 0 0.08323706686496735
vt 0.001599379349499941 0.06699832528829575
vt 0.006336046848446131 0.0513836182653904
vt 0.01402797177433968 0.03699303045868874
vt 0.02437956817448139 0.02437957376241684
vt 0.03699303045868874 0.01402797549962997
vt 0.05138362571597099 0.006336044520139694
vt 0.06699832528829575 0.001599376904778183
vt 0.08323706686496735 0
vt 0.09947581589221954 0.001599376904778183
vt 0.1150905191898346 0.006336044520139694
vt 0.1294811069965363 0.01402797549962997
vt 0.1420945674180985 0.02437957376241684
vt 0.1524461656808853 0.03699303045868874
vt 0.1601380854845047 0.0513836182653904
vt 0.1648747622966766 0.06699832528829575
vt 0.1664741337299347 0.08323706686496735
vt 0.1648747622966766 0.09947581589221954
vt 0.1601380854845047 0.115090511739254
vt 0.1524461656808853 0.1294811069965363
vt 0.1420945674180985 0.1420945674180985
vt 0.1294811069965363 0.1524461656808853
vt 0.1150905191898346 0.1601380854845047
vt 0.09947581589221954 0.1648747622966766
vn 0.9984603524208069 0 0.05547001957893372
vn 0.9984603524208069 -2.445522555670482e-16 0.05547001957893372
vn 0.9792752265930176 0.1947899460792542 0.05547001957893372
vn 0.9792752265930176 0.1947899460792542 0.05547001957893372
vn 0.9224570989608765 0.3820942342281342 0.05547001957893372
vn 0.9224570989608765 0.3820942342281342 0.05547001957893372
vn 0.8301894664764404 0.5547148585319519 0.05547001957893372
vn 0.8301894664764404 0.5547148585319519 0.05547001957893372
vn 0.7060180902481079 0.7060180902481079 0.05547001957893372
vn 0.7060180902481079 0.7060180902481079 0.05547001957893372
vn 0.5547148585319519 0.8301894664764404 0.05547001957893372
vn 0.5547148585319519 0.8301894664764404 0.05547001957893372
vn 0.3820942342281342 0.9224570989608765 0.05547001957893372
vn 0.3820942342281342 0.9224570989608765 0.05547001957893372
vn 0.1947899460792542 0.9792752265930176 0.05547001957893372
vn 0.1947899460792542 0.9792752265930176 0.05547001957893372
vn 6.113806389176205e-17 0.9984603524208069 0.05547001957893372
vn 6.113806389176205e-17 0.9984603524208069 0.05547001957893372
vn -0.1947899460792542 0.9792752265930176 0.05547001957893372
vn -0.1947899460792542 0.9792752265930176 0.05547001957893372
vn -0.3820942342281342 0.9224570989608765 0.05547001957893372
vn -0.3820942342281342 0.9224570989608765 0.05547001957893372
vn -0.5547148585319519 0.8301894664764404 0.05547001957893372
vn -0.5547148585319519 0.8301894664764404 0.05547001957893372
vn -0.7060180902481079 0.7060180902481079 0.05547001957893372
vn -0.7060180902481079 0.7060180902481079 0.05547001957893372
vn -0.8301894664764404 0.5547148585319519 0.05547001957893372
vn -0.8301894664764404 0.5547148585319519 0.05547001957893372
vn -0.9224570989608765 0.3820942342281342 0.05547001957893372
vn -0.9224570989608765 0.3820942342281342 0.05547001957893372
vn -0.9792752265930176 0.1947899460792542 0.05547001957893372
vn -0.9792752265930176 0.1947899460792542 0.05547001957893372
vn -0.9984603524208069 1.222761277835241e-16 0.05547001957893372
vn -0.9984603524208069 1.222761277835241e-16 0.05547001957893372
vn -0.9792752265930176 -0.1947899460792542 0.05547001957893372
vn -0.9792752265930176 -0.1947899460792542 0.05547001957893372
vn -0.9224570989608765 -0.3820942342281342 0.05547001957893372
vn -0.9224570989608765 -0.3820942342281342 0.05547001957893372
vn -0.8301894664764404 -0.5547148585319519 0.05547001957893372
vn -0.8301894664764404 -0.5547148585319519 0.05547001957893372
vn -0.7060180902481079 -0.7060180902481079 0.05547001957893372
vn -0.7060180902481079 -0.7060180902481079 0.05547001957893372
vn -0.5547148585319519 -0.8301894664764404 0.05547001957893372
vn -0.5547148585319519 -0.8301894664764404 0.05547001957893372
vn -0.3820942342281342 -0.9224570989608765 0.05547001957893372
vn -0.3820942342281342 -0.9224570989608765 0.05547001957893372
vn -0.1947899460792542 -0.9792752265930176 0.05547001957893372
vn -0.1947899460792542 -0.9792752265930176 0.05547001957893372
vn -1.834141850578413e-16 -0.9984603524208069 \
 0.05547001957893372
vn -1.834141850578413e-16 -0.9984603524208069 \
 0.05547001957893372
vn 0.1947899460792542 -0.9792752265930176 0.05547001957893372
vn 0.1947899460792542 -0.9792752265930176 0.05547001957893372
vn 0.3820942342281342 -0.9224570989608765 0.05547001957893372
vn 0.3820942342281342 -0.9224570989608765 0.05547001957893372
vn 0.5547148585319519 -0.8301894664764404 0.05547001957893372
vn 0.5547148585319519 -0.8301894664764404 0.05547001957893372
vn 0.7060180902481079 -0.7060180902481079 0.05547001957893372
vn 0.7060180902481079 -0.7060180902481079 0.05547001957893372
vn 0.8301894664764404 -0.5547148585319519 0.05547001957893372
vn 0.8301894664764404 -0.5547148585319519 0.05547001957893372
vn 0.9224570989608765 -0.3820942342281342 0.05547001957893372
vn 0.9224570989608765 -0.3820942342281342 0.05547001957893372
vn 0.9792752265930176 -0.1947899460792542 0.05547001957893372
vn 0.9792752265930176 -0.1947899460792542 0.05547001957893372
vn 0.9984603524208069 0 0.05547001957893372
vn 0.9984603524208069 -2.445522555670482e-16 0.05547001957893372
vn 0 0 -1
vn 0 0 -1
vn 0 0 -1
vn 0 0 -1
vn 0 0 -1
vn 0 0 -1
vn 0 0 -1
vn 0 0 -1
vn 0 0 -1
vn 0 0 -1
vn 0 0 -1
vn 0 0 -1
vn 0 0 -1
vn 0 0 -1
vn 0 0 -1
vn 0 0 -1
vn 0 0 -1
vn 0 0 -1
vn 0 0 -1
vn 0 0 -1
vn 0 0 -1
vn 0 0 -1
vn 0 0 -1
vn 0 0 -1
vn 0 0 -1
vn 0 0 -1
vn 0 0 -1
vn 0 0 -1
vn 0 0 -1
vn 0 0 -1
vn 0 0 -1
vn 0 0 -1
vn 0 0 1
vn 4.440892098500626e-16 0 1
vn 4.440892098500626e-16 0 1
vn -4.440892098500626e-16 0 1
vn 0 0 1
vn 0 0 1
vn 0 0 1
vn 0 0 1
vn 0 0 1
vn 0 0 1
vn 0 0 1
vn 0 0 1
vn 0 0 1
vn -4.440892098500626e-16 0 1
vn 0 0 1
vn -4.440892098500626e-16 0 1
vn 0 0 1
vn 2.220446049250313e-16 0 1
vn -2.220446049250313e-16 0 1
vn 1.110223024625157e-16 0 1
vn 0 0 1
vn -1.110223024625157e-16 0 1
vn -1.110223024625157e-16 0 1
vn -3.608224830031759e-16 0 1
vn 0 0 1
vn -4.440892098500626e-16 0 1
vn -1.110223024625157e-16 0 1
vn -1.110223024625157e-16 0 1
vn 2.220446049250313e-16 0 1
vn -3.33066907387547e-16 0 1
vn -2.220446049250313e-16 0 1
vn -4.440892098500626e-16 0 1
f 3/3/3 4/4/4 2/2/2 1/1/1
f 7/7/7 8/8/8 6/6/6 5/5/5
f 5/5/5 6/6/6 4/4/4 3/3/3
f 11/11/11 12/12/12 10/10/10 9/9/9
f 15/15/15 16/16/16 14/14/14 13/13/13
f 13/13/13 14/14/14 12/12/12 11/11/11
f 9/9/9 10/10/10 8/8/8 7/7/7
f 19/19/19 20/20/20 18/18/18 17/17/17
f 23/23/23 24/24/24 22/22/22 21/21/21
f 21/21/21 22/22/22 20/20/20 19/19/19
f 27/27/27 28/28/28 26/26/26 25/25/25
f 31/31/31 32/32/32 30/30/30 29/29/29
f 29/29/29 30/30/30 28/28/28 27/27/27
f 25/25/25 26/26/26 24/24/24 23/23/23
f 17/17/17 18/18/18 16/16/16 15/15/15
f 33/33/33 34/34/34 32/32/32 31/31/31
f 37/37/37 38/38/38 36/36/36 35/35/35
f 41/41/41 42/42/42 40/40/40 39/39/39
f 39/39/39 40/40/40 38/38/38 37/37/37
f 45/45/45 46/46/46 44/44/44 43/43/43
f 49/49/49 50/50/50 48/48/48 47/47/47
f 47/47/47 48/48/48 46/46/46 45/45/45
f 43/43/43 44/44/44 42/42/42 41/41/41
f 53/53/53 54/54/54 52/52/52 51/51/51
f 57/57/57 58/58/58 56/56/56 55/55/55
f 55/55/55 56/56/56 54/54/54 53/53/53
f 61/61/61 62/62/62 60/60/60 59/59/59
f 65/65/65 66/66/66 64/64/64 63/63/63
f 63/63/63 64/64/64 62/62/62 61/61/61
f 59/59/59 60/60/60 58/58/58 57/57/57
f 51/51/51 52/52/52 50/50/50 49/49/49
f 35/35/35 36/36/36 34/34/34 33/33/33
f 84/84/84 85/85/85 86/86/86
f 83/83/83 84/84/84 82/82/82
f 87/87/87 84/84/84 86/86/86
f 88/88/88 89/89/89 90/90/90
f 84/84/84 88/88/88 90/90/90
f 88/88/88 84/84/84 87/87/87
f 90/90/90 82/82/82 84/84/84
f 80/80/80 81/81/81 82/82/82
f 80/80/80 78/78/78 79/79/79
f 78/78/78 80/80/80 82/82/82
f 76/76/76 77/77/77 78/78/78
f 82/82/82 74/74/74 78/78/78
f 78/78/78 74/74/74 76/76/76
f 75/75/75 76/76/76 74/74/74
f 82/82/82 90/90/90 74/74/74
f 98/98/98 90/90/90 92/92/92
f 92/92/92 93/93/93 94/94/94
f 94/94/94 95/95/95 92/92/92
f 92/92/92 96/96/96 98/98/98
f 96/96/96 97/97/97 98/98/98
f 95/95/95 96/96/96 92/92/92
f 74/74/74 90/90/90 98/98/98
f 73/73/73 71/71/71 72/72/72
f 71/71/71 73/73/73 74/74/74
f 71/71/71 74/74/74 98/98/98
f 71/71/71 68/68/68 70/70/70
f 68/68/68 69/69/69 70/70/70
f 71/71/71 98/98/98 68/68/68
f 68/68/68 98/98/98 67/67/67
f 91/91/91 92/92/92 90/90/90
f 118/118/118 115/115/115 116/116/116
f 118/118/118 116/116/116 117/117/117
f 120/120/120 118/118/118 119/119/119
f 110/110/110 118/118/118 122/122/122
f 122/122/122 120/120/120 121/121/121
f 122/122/122 118/118/118 120/120/120
f 110/110/110 122/122/122 130/130/130
f 112/112/112 114/114/114 115/115/115
f 114/114/114 112/112/112 113/113/113
f 112/112/112 115/115/115 110/110/110
f 110/110/110 111/111/111 112/112/112
f 110/110/110 108/108/108 109/109/109
f 115/115/115 118/118/118 110/110/110
f 108/108/108 110/110/110 130/130/130
f 124/124/124 122/122/122 123/123/123
f 126/126/126 122/122/122 125/125/125
f 130/130/130 122/122/122 126/126/126
f 127/127/127 128/128/128 126/126/126
f 130/130/130 128/128/128 129/129/129
f 108/108/108 130/130/130 106/106/106
f 128/128/128 130/130/130 126/126/126
f 99/99/99 100/100/100 130/130/130
f 105/105/105 103/103/103 104/104/104
f 106/106/106 102/102/102 105/105/105
f 106/106/106 107/107/107 108/108/108
f 102/102/102 100/100/100 101/101/101
f 102/102/102 103/103/103 105/105/105
f 102/102/102 106/106/106 130/130/130
f 130/130/130 100/100/100 102/102/102
f 124/124/124 125/125/125 122/122/122
