2700 0 1 0           
15 SolidWorks 2018 14 ACIS 27.0.2 NT 24 Wed Oct  9 08:53:05 2019 
1 9.9999999999999995e-07 1e-10 
T @52 6F6PSY54ZSVE7467UEFDRMZPX5RKKJ5AFCUCFA5FFCREKG5VT8S3 
-0 body $1 -1 -1 $-1 0 $2 $-1 $-1 F #
-1 name_attrib-gen-attrib $-1 -1 $-1 $-1 $0 2 1 1 1 1 1 1 1 1 1 1 1 1 1 0 1 1 1 @6 Pierna #
-2 lump $3 -1 -1 $-1 $-1 $4 $0 F #
-3 rgb_color-st-attrib $-1 -1 $-1 $-1 $2 2 1 2 1 1 1 1 1 1 1 1 1 1 1 0 1 1 1 0.792156862745098 0.81960784313725488 0.93333333333333335 #
-4 shell $-1 -1 -1 $-1 $-1 $-1 $5 $-1 $2 F #
-5 face $6 -1 -1 $-1 $7 $8 $4 $-1 $9 reversed single F T 2 24.5 -3.1415926535897931 0 #
-6 integer_attrib-name_attrib-gen-attrib $-1 -1 $-1 $-1 $5 2 1 2 1 1 1 1 1 1 1 1 1 1 1 0 1 1 1 @15 Cortar-Extruir1 0 #
-7 face $10 -1 -1 $-1 $11 $12 $4 $-1 $13 forward single F F #
-8 loop $-1 -1 -1 $-1 $-1 $14 $5 F unknown #
-9 cone-surface $-1 -1 -1 $-1 0 490 0 0 -1 0 0 0 -20 1 I I 0 1 20 forward I I I I #
-10 integer_attrib-name_attrib-gen-attrib $-1 -1 $-1 $-1 $7 2 1 2 1 1 1 1 1 1 1 1 1 1 1 0 1 1 1 @15 Cortar-Extruir1 0 #
-11 face $15 -1 -1 $-1 $16 $17 $4 $-1 $18 reversed single F F #
-12 loop $-1 -1 -1 $-1 $-1 $19 $7 F unknown #
-13 spline-surface $-1 -1 -1 $-1 forward { exactsur 0 full nurbs 3 1 both periodic open none none 3 2 
	0 3 0.5 3 1 3 
	0 1 1 1 
	16.907334029883767 450 47.054670926507761 1 
	-77.20200782313168 450.00000000000006 80.869338986275267 0.33333333333333354 
	-111.01667588289924 450.00000000000006 -13.240002866740202 0.33333333333333354 
	-16.907334029883785 450 -47.054670926507754 1 
	77.202007823131709 450 -80.869338986275324 0.33333333333333337 
	111.01667588289929 450 13.240002866740188 0.33333333333333337 
	16.907334029883767 450 47.054670926507761 1 
	52.631645485616794 0 53.431356837313743 1 
	-54.231068189010685 0 158.6946478085473 0.33333333333333337 
	-159.4943591602443 0 51.831934133919809 0.33333333333333337 
	-52.631645485616787 0 -53.431356837313757 1 
	54.231068189010728 0 -158.6946478085473 0.33333333333333337 
	159.4943591602443 0 -51.831934133919795 0.33333333333333337 
	52.631645485616794 0 53.431356837313743 1 
	0 
	0 
	0 
	0 
	0 
	0 
	0 
	F 1 F 0 F 1 F 0 } I I I I #
-14 coedge $-1 -1 -1 $-1 $20 $21 $22 $23 reversed $8 $-1 #
-15 integer_attrib-name_attrib-gen-attrib $-1 -1 $-1 $-1 $11 2 1 2 1 1 1 1 1 1 1 1 1 1 1 0 1 1 1 @15 Cortar-Extruir1 0 #
-16 face $24 -1 -1 $-1 $25 $26 $4 $-1 $27 forward single F F #
-17 loop $-1 -1 -1 $-1 $28 $29 $11 F unknown #
-18 plane-surface $-1 -1 -1 $-1 0 0 0 0 1 0 0 0 1000 forward_v I I I I #
-19 coedge $-1 -1 -1 $-1 $30 $31 $32 $33 reversed $12 $34 #
-20 coedge $-1 -1 -1 $-1 $35 $14 $36 $37 forward $8 $-1 #
-21 coedge $-1 -1 -1 $-1 $14 $35 $38 $39 reversed $8 $-1 #
-22 coedge $-1 -1 -1 $-1 $40 $40 $14 $23 forward $26 $-1 #
-23 edge $-1 -1 -1 $-1 $41 -1.224646799147353e-16 $42 3.1415926535897931 $22 $43 forward @7 unknown F #
-24 integer_attrib-name_attrib-gen-attrib $-1 -1 $-1 $-1 $16 2 1 2 1 1 1 1 1 1 1 1 1 1 1 0 1 1 1 @15 Cortar-Extruir1 0 #
-25 face $44 -1 -1 $-1 $45 $46 $4 $-1 $47 forward single F F #
-26 loop $-1 -1 -1 $-1 $48 $40 $16 F unknown #
-27 plane-surface $-1 -1 -1 $-1 0 450 0 0 1 0 0 0 1000 forward_v I I I I #
-28 loop $-1 -1 -1 $-1 $-1 $49 $11 F unknown #
-29 coedge $-1 -1 -1 $-1 $50 $50 $51 $52 reversed $17 $-1 #
-30 tcoedge-coedge $-1 -1 -1 $-1 $53 $19 $54 $55 forward $12 $56 0 1 F #
-31 tcoedge-coedge $-1 -1 -1 $-1 $19 $53 $57 $58 reversed $12 $59 -1 -0 F #
-32 coedge $-1 -1 -1 $-1 $60 $60 $19 $33 forward $48 $-1 #
-33 edge $-1 -1 -1 $-1 $61 -2.7966457802257736 $62 0.34494687336408891 $32 $63 forward @7 unknown F #
-34 pcurve $-1 -1 -1 $-1 0 forward { exppc 1 nubs 2 open 25 
	-0.34494687336408891 2 -0.21404717946451132 2 -0.083147485564933732 2 0.047752208334643859 2 0.17865190223422145 2 
	0.30955159613379901 2 0.44045129003337663 2 0.57135098393295425 2 0.70225067783253181 2 0.83315037173210937 2 
	0.96405006563168705 2 1.0949497595312647 2 1.2258494534308424 2 1.3567491473304201 2 1.4876488412299975 2 
	1.618548535129575 2 1.7494482290291526 2 1.8803479229287303 2 2.011247616828308 2 2.1421473107278857 2 
	2.2730470046274633 2 2.403946698527041 2 2.5348463924266182 2 2.6657460863261959 2 2.7966457802257736 2 
	0 0 
	0.030221243937561849 0 
	0.030755884251877919 0 
	0.04519800476218723 1.3181094146663784e-16 
	0.058168253005275061 2.5018833838401038e-16 
	0.071142950373870972 1.1922829825328994e-16 
	0.082955340520246973 0 
	0.083437552422690103 5.8511819048317023e-22 
	0.10566243270260715 2.7552892455706344e-20 
	0.12632826932331359 5.0439725944196265e-22 
	0.12671364349218783 0 
	0.13687275651787395 0 
	0.14644660940673904 0 
	0.15602176824402939 0 
	0.16513643528416899 0 
	0.16550086467332784 7.7198525073512662e-18 
	0.18301270189223184 3.7868005627887069e-16 
	0.19994347539281809 7.2060635355831294e-18 
	0.20027190815509793 0 
	0.20877027137000898 0 
	0.21708687560317902 0 
	0.22540379281778955 6.386183209696604e-17 
	0.23361413429620326 1.2690531749226577e-16 
	0.23393677885358943 1.2440649864849086e-16 
	0.2500000000000131 0 
	0.26606322114643693 2.4758850968204761e-16 
	0.26638586570382311 2.5256155241065719e-16 
	0.2745962071822366 1.2709509556352168e-16 
	0.28291312439684696 0 
	0.2912297286300175 1.247973029325642e-16 
	0.29972809184492921 2.5232204486175519e-16 
	0.300056524607209 2.4752371449588756e-16 
	0.31698729810779624 1.6884026968021508e-19 
	0.33449913532670139 3.4420137993029523e-21 
	0.33486356471586015 0 
	0.34397823175600051 0 
	0.35355339059329166 0 
	0.36312724348215752 0 
	0.3732863565078447 0 
	0.37367173067671905 0 
	0.3943375672974278 0 
	0.41656244757734684 0 
	0.41704465947979003 0 
	0.42885704962616811 0 
	0.44183174699476663 0 
	0.45480199523785625 0 
	0.46924411574816771 0 
	0.46977875606248382 0 
	0.50000000000003486 0 
	0.001 
	0.0069501450297544953 
	spline forward { ref 0 } I I I I 
	} 0 0 #
-35 coedge $-1 -1 -1 $-1 $21 $20 $50 $64 forward $8 $-1 #
-36 coedge $-1 -1 -1 $-1 $65 $51 $20 $37 reversed $66 $-1 #
-37 edge $-1 -1 -1 $-1 $41 0.040000000000000001 $67 0.48999999999999999 $20 $68 forward @7 unknown F #
-38 coedge $-1 -1 -1 $-1 $51 $65 $21 $39 forward $66 $-1 #
-39 edge $-1 -1 -1 $-1 $42 0.040000000000000001 $69 0.48999999999999999 $38 $70 forward @7 unknown F #
-40 coedge $-1 -1 -1 $-1 $22 $22 $65 $71 forward $26 $-1 #
-41 vertex $-1 -1 -1 $-1 $37 $72 #
-42 vertex $-1 -1 -1 $-1 $23 $73 #
-43 ellipse-curve $-1 -1 -1 $-1 0 450 0 -0 -1 -0 0 0 20 1 I I #
-44 integer_attrib-name_attrib-gen-attrib $-1 -1 $-1 $-1 $25 2 1 2 1 1 1 1 1 1 1 1 1 1 1 0 1 1 1 @15 Cortar-Extruir1 0 #
-45 face $74 -1 -1 $-1 $-1 $66 $4 $-1 $75 reversed single F T 2 24.5 0 3.1415926535897931 #
-46 loop $-1 -1 -1 $-1 $-1 $54 $25 F unknown #
-47 spline-surface $-1 -1 -1 $-1 forward { exactsur 2 full nurbs 3 1 both periodic open none none 3 2 
	0 3 0.5 3 1 3 
	0 1 1 1 
	16.907334029883767 450 47.054670926507761 1 
	-77.20200782313168 450.00000000000006 80.869338986275267 0.33333333333333354 
	-111.01667588289924 450.00000000000006 -13.240002866740202 0.33333333333333354 
	-16.907334029883785 450 -47.054670926507754 1 
	77.202007823131709 450 -80.869338986275324 0.33333333333333337 
	111.01667588289929 450 13.240002866740188 0.33333333333333337 
	16.907334029883767 450 47.054670926507761 1 
	52.631645485616794 0 53.431356837313743 1 
	-54.231068189010685 0 158.6946478085473 0.33333333333333337 
	-159.4943591602443 0 51.831934133919809 0.33333333333333337 
	-52.631645485616787 0 -53.431356837313757 1 
	54.231068189010728 0 -158.6946478085473 0.33333333333333337 
	159.4943591602443 0 -51.831934133919795 0.33333333333333337 
	52.631645485616794 0 53.431356837313743 1 
	0 
	0 
	0 
	0 
	0 
	0 
	0 
	F 1 F 0 F 1 F 0 } I I I I #
-48 loop $-1 -1 -1 $-1 $-1 $60 $16 F unknown #
-49 coedge $-1 -1 -1 $-1 $76 $76 $77 $78 reversed $28 $-1 #
-50 coedge $-1 -1 -1 $-1 $29 $29 $35 $64 reversed $17 $-1 #
-51 coedge $-1 -1 -1 $-1 $36 $38 $29 $52 forward $66 $-1 #
-52 edge $-1 -1 -1 $-1 $69 -3.1415926535897931 $67 -1.224646799147353e-16 $51 $79 forward @7 unknown F #
-53 coedge $-1 -1 -1 $-1 $31 $30 $76 $80 forward $12 $81 #
-54 tcoedge-coedge $-1 -1 -1 $-1 $82 $77 $30 $55 reversed $46 $83 -1 -0 F #
-55 tedge-edge $-1 -1 -1 $-1 $61 0 $84 1 $30 $85 forward @7 unknown F 1.5630069041080731e-06 #
-56 pcurve $-1 -1 -1 $-1 0 forward { exppc 3 nubs 1 open 2 
	0 1 1 1 
	0.50000000000495004 3.1241697130392187e-11 
	0.49999999999996769 1 
	0.001 
	1.8292811709841317e-10 
	spline forward { ref 0 } I I I I 
	} 0 0 #
-57 tcoedge-coedge $-1 -1 -1 $-1 $77 $82 $31 $58 forward $46 $86 0 1 F #
-58 tedge-edge $-1 -1 -1 $-1 $62 0 $87 1 $57 $88 forward @7 unknown F 1.6732749267241465e-06 #
-59 pcurve $-1 -1 -1 $-1 0 forward { exppc 4 nubs 1 open 2 
	-1 1 -0 1 
	0 1 
	0 3.1241634761262887e-11 
	0.001 
	-1 
	spline forward { ref 0 } I I I I 
	} 0 0 #
-60 coedge $-1 -1 -1 $-1 $32 $32 $82 $89 forward $48 $-1 #
-61 tvertex-vertex $-1 -1 -1 $-1 $55 $90 3.5045701653057504e-07 #
-62 tvertex-vertex $-1 -1 -1 $-1 $33 $91 3.5045733394045771e-07 #
-63 ellipse-curve $-1 -1 -1 $-1 0 450 0 0 1 0 0 0 50 1 I I #
-64 edge $-1 -1 -1 $-1 $67 -1.224646799147353e-16 $69 3.1415926535897931 $35 $92 forward @7 unknown F #
-65 coedge $-1 -1 -1 $-1 $38 $36 $40 $71 reversed $66 $-1 #
-66 loop $-1 -1 -1 $-1 $-1 $36 $45 F unknown #
-67 vertex $-1 -1 -1 $-1 $37 $93 #
-68 straight-curve $-1 -1 -1 $-1 2.4492935982947065e-15 490 20 0 -1000 0 I I #
-69 vertex $-1 -1 -1 $-1 $64 $94 #
-70 straight-curve $-1 -1 -1 $-1 0 490 -20 0 -1000 0 I I #
-71 edge $-1 -1 -1 $-1 $42 -3.1415926535897931 $41 -1.224646799147353e-16 $40 $95 forward @7 unknown F #
-72 point $-1 -1 -1 $-1 2.4492935982947065e-15 450 20 #
-73 point $-1 -1 -1 $-1 0 450 -20 #
-74 integer_attrib-name_attrib-gen-attrib $-1 -1 $-1 $-1 $45 2 1 2 1 1 1 1 1 1 1 1 1 1 1 0 1 1 1 @15 Cortar-Extruir1 0 #
-75 cone-surface $-1 -1 -1 $-1 0 490 0 0 -1 0 0 0 -20 1 I I 0 1 20 forward I I I I #
-76 coedge $-1 -1 -1 $-1 $49 $49 $53 $80 reversed $28 $-1 #
-77 coedge $-1 -1 -1 $-1 $54 $57 $49 $78 forward $46 $96 #
-78 edge $-1 -1 -1 $-1 $87 0.77785834102892859 $84 3.9194509946187557 $77 $97 forward @7 unknown F #
-79 ellipse-curve $-1 -1 -1 $-1 0 0 0 -0 -1 -0 0 0 20 1 I I #
-80 edge $-1 -1 -1 $-1 $84 -2.3637343125608306 $87 0.77785834102892859 $53 $98 forward @7 unknown F #
-81 pcurve $-1 -1 -1 $-1 0 forward { exppc 5 nubs 2 open 25 
	-2.3637343125608306 2 -2.2328346186612573 2 -2.1019349247616841 2 -1.9710352308621109 2 -1.8401355369625374 2 
	-1.7092358430629639 2 -1.5783361491633907 2 -1.4474364552638175 2 -1.3165367613642442 2 -1.185637067464671 2 
	-1.0547373735650976 2 -0.92383767966552433 2 -0.79293798576595098 2 -0.66203829186637764 2 -0.5311385979668044 2 
	-0.40023890406723117 2 -0.26933921016765794 2 -0.13843951626808457 2 -0.0075398223685111954 2 0.12335987153106218 2 
	0.25425956543063555 2 0.38515925933020884 2 0.51605895322978212 2 0.64695864712935536 2 0.77785834102892859 2 
	0.49999999999996747 1 
	0.46960261995909425 0.99999999999999689 
	0.46924411574810471 0.99999999999999689 
	0.45480199523779941 0.99999999999999856 
	0.44183174699471484 1 
	0.42885704962611604 0.99999999999999689 
	0.41704465947973768 0.99999999999999412 
	0.41672089302383741 0.99999999999999434 
	0.39433756729738573 1 
	0.37354484999143928 1 
	0.37328635650780617 0.99999999999999989 
	0.36312724348212061 1 
	0.35355339059325597 1 
	0.34397823175596598 0.99999999999999978 
	0.33486356471582684 0.99999999999999989 
	0.33461894953058358 0.99999999999999989 
	0.31698729810776477 1 
	0.29994844474940474 1 
	0.29972809184489929 1 
	0.29122972862998825 0.99999999999999489 
	0.28291312439681815 0.99999999999998979 
	0.27459620718220829 0.99999999999999489 
	0.26638586570379519 1 
	0.26616934822559984 1 
	0.24999999999998587 1 
	0.23383065177437176 0.99999999999999989 
	0.23361413429617645 1 
	0.22540379281776288 0.99999999999999489 
	0.2170868756031524 0.99999999999998979 
	0.20877027136998244 0.99999999999999489 
	0.2002719081550714 1 
	0.20005155525056595 1 
	0.183012701892205 1 
	0.165381050469385 1 
	0.16513643528414168 0.99999999999999989 
	0.15602176824400177 0.99999999999999989 
	0.14644660940671098 1 
	0.13687275651784545 1 
	0.12671364349215869 0.99999999999999989 
	0.12645515000852561 0.99999999999999989 
	0.10566243270257665 1 
	0.083279106976118095 0.99999999999999434 
	0.082955340520217677 0.99999999999999434 
	0.071142950373839262 0.999999999999997 
	0.058168253005240395 1 
	0.045198004762152313 0.99999999999999845 
	0.030755884251842631 0.99999999999999689 
	0.030397380040853263 0.99999999999999678 
	0 1 
	0.001 
	0.007038213081424629 
	spline forward { ref 0 } I I I I 
	} 0 0 #
-82 coedge $-1 -1 -1 $-1 $57 $54 $60 $89 reversed $46 $99 #
-83 pcurve $-1 -1 -1 $-1 0 forward { exppc 6 nubs 1 open 2 
	-1 1 -0 1 
	0.49999999999996769 1 
	0.50000000000495004 3.1241697130392187e-11 
	0.001 
	1.8292811709841317e-10 
	spline forward { ref 2 } I I I I 
	} 0 0 #
-84 tvertex-vertex $-1 -1 -1 $-1 $55 $100 1.5653780105886563e-06 #
-85 intcurve-curve $-1 -1 -1 $-1 forward { exactcur 7 full nubs 1 open 2 
	0 1 1 1 
	-16.907334148383057 450.00000000000006 -47.054671256322912 
	-52.631646584135964 0 -53.431357952510552 
	0 
	null_surface 
	null_surface 
	nullbs 
	nullbs 
	-1 
	-1 
	I I 
	0 
	0 
	0 
	
	-1 
	none F F 1 F 0 } I I #
-86 pcurve $-1 -1 -1 $-1 0 forward { exppc 8 nubs 1 open 2 
	0 1 1 1 
	1 3.1241634761262887e-11 
	1 1 
	0.001 
	-1 
	spline forward { ref 2 } I I I I 
	} 0 0 #
-87 tvertex-vertex $-1 -1 -1 $-1 $80 $101 1.6758840141216618e-06 #
-88 intcurve-curve $-1 -1 -1 $-1 forward { exactcur 9 full nubs 1 open 2 
	0 1 1 1 
	16.907334148386457 450 47.054671256322024 
	52.631646661682346 0 53.431358031238801 
	0 
	null_surface 
	null_surface 
	nullbs 
	nullbs 
	-1 
	-1 
	I I 
	0 
	0 
	0 
	
	-1 
	none F F 1 F 0 } I I #
-89 edge $-1 -1 -1 $-1 $62 0.34494687336408891 $61 3.4865395269538126 $60 $102 forward @7 unknown F #
-90 point $-1 -1 -1 $-1 -16.907334148383057 450.00000000000006 -47.054671256322912 #
-91 point $-1 -1 -1 $-1 16.907334148386457 450 47.054671256322024 #
-92 ellipse-curve $-1 -1 -1 $-1 0 0 0 -0 -1 -0 0 0 20 1 I I #
-93 point $-1 -1 -1 $-1 2.4492935982947065e-15 0 20 #
-94 point $-1 -1 -1 $-1 0 0 -20 #
-95 ellipse-curve $-1 -1 -1 $-1 0 450 0 -0 -1 -0 0 0 20 1 I I #
-96 pcurve $-1 -1 -1 $-1 0 forward { exppc 10 nubs 2 open 25 
	0.77785834102892859 2 0.90875803492850482 2 1.0396577288280811 2 1.1705574227276572 2 1.3014571166272333 2 
	1.4323568105268094 2 1.5632565044263855 2 1.6941561983259616 2 1.8250558922255378 2 1.9559555861251139 2 
	2.08685528002469 2 2.2177549739242659 2 2.3486546678238422 2 2.4795543617234186 2 2.6104540556229945 2 
	2.7413537495225704 2 2.8722534434221467 2 3.0031531373217231 2 3.134052831221299 2 3.2649525251208749 2 
	3.3958522190204512 2 3.5267519129200275 2 3.6576516068196034 2 3.7885513007191793 2 3.9194509946187557 2 
	1 1 
	0.96960261995910146 0.99999999999999678 
	0.96924411574811165 0.99999999999999678 
	0.95480199523780551 0.99999999999999845 
	0.9418317469947205 1 
	0.92885704962612126 0.99999999999999689 
	0.91704465947974223 0.99999999999999412 
	0.91672089302384174 0.99999999999999412 
	0.89433756729738956 1 
	0.87354484999144244 1 
	0.87328635650780928 0.99999999999999989 
	0.86312724348212333 1 
	0.85355339059325841 1 
	0.8439782317559682 0.99999999999999978 
	0.83486356471582879 0.99999999999999989 
	0.83461894953058546 0.99999999999999978 
	0.81698729810776627 1 
	0.79994844474940585 1 
	0.79972809184490035 1 
	0.79122972862998908 0.99999999999999489 
	0.78291312439681882 0.99999999999998979 
	0.77459620718220878 0.99999999999999489 
	0.76638586570379552 1 
	0.76616934822560023 1 
	0.7499999999999859 1 
	0.73383065177437135 0.99999999999999989 
	0.73361413429617606 1 
	0.72540379281776235 0.99999999999999489 
	0.71708687560315165 0.99999999999998979 
	0.70877027136998161 0.99999999999999489 
	0.70027190815507034 1 
	0.70005155525056484 1 
	0.68301270189220342 1 
	0.6653810504693829 0.99999999999999978 
	0.66513643528413968 0.99999999999999989 
	0.6560217682439996 0.99999999999999989 
	0.64644660940670851 1 
	0.63687275651784259 0.99999999999999978 
	0.62671364349215564 0.99999999999999989 
	0.62645515000852248 0.99999999999999989 
	0.60566243270257292 1 
	0.58327910697611351 0.99999999999999445 
	0.58295534052021303 0.99999999999999434 
	0.57114295037383411 0.99999999999999711 
	0.55816825300523476 1 
	0.54519800476214619 0.99999999999999867 
	0.53075588425183573 0.99999999999999689 
	0.53039738004084602 0.99999999999999678 
	0.49999999999996758 1 
	0.001 
	0.0070382130814188315 
	spline forward { ref 2 } I I I I 
	} 0 0 #
-97 ellipse-curve $-1 -1 -1 $-1 0 0 0 0 1 0 0 0 75.000000000000014 1 I I #
-98 ellipse-curve $-1 -1 -1 $-1 0 0 0 0 1 0 0 0 75.000000000000014 1 I I #
-99 pcurve $-1 -1 -1 $-1 0 forward { exppc 11 nubs 2 open 25 
	-3.4865395269538126 2 -3.3556398330542407 2 -3.2247401391546688 2 -3.0938404452550969 2 -2.9629407513555255 2 
	-2.832041057455954 2 -2.7011413635563821 2 -2.5702416696568102 2 -2.4393419757572383 2 -2.3084422818576664 2 
	-2.1775425879580945 2 -2.0466428940585226 2 -1.9157432001589507 2 -1.7848435062593788 2 -1.6539438123598071 2 
	-1.5230441184602355 2 -1.3921444245606636 2 -1.2612447306610917 2 -1.1303450367615198 2 -0.99944534286194786 2 
	-0.86854564896237607 2 -0.73764595506280428 2 -0.60674626116323249 2 -0.4758465672636607 2 -0.34494687336408891 2 
	0.50000000000003497 3.7905505143863615e-19 
	0.53022124393757641 6.5892467985825657e-21 
	0.53075588425189213 0 
	0.54519800476220004 0 
	0.55816825300528661 0 
	0.57114295037388185 0 
	0.58295534052025744 0 
	0.58343755242270046 0 
	0.60566243270261488 0 
	0.62632826932331997 0 
	0.62671364349219416 0 
	0.63687275651787967 1.2944947250689022e-16 
	0.64644660940674414 2.5144144200153609e-16 
	0.65602176824403391 1.2262313404985681e-16 
	0.6651364352841731 0 
	0.66550086467333192 5.1533931059610373e-18 
	0.68301270189223495 2.5278814453179833e-16 
	0.69994347539282054 1.2819975996513855e-16 
	0.70027190815510032 1.2578292370601596e-16 
	0.70877027137001092 6.2211645605852069e-17 
	0.71708687560318052 0 
	0.72540379281779077 1.9002036426041318e-16 
	0.73361413429620403 3.7760574453687452e-16 
	0.73393677885359021 3.7017291715703737e-16 
	0.7500000000000131 1.2126988065258915e-19 
	0.76606322114643621 9.4896635324608995e-20 
	0.76638586570382239 9.4366904457548238e-20 
	0.77459620718223554 4.74877138883144e-20 
	0.78291312439684546 0 
	0.79122972863001562 1.248459039245812e-16 
	0.79972809184492699 2.5242030901810992e-16 
	0.80005652460720689 2.4762760558594436e-16 
	0.81698729810779314 5.6280089893419014e-19 
	0.83449913532669751 8.5802482813473965e-17 
	0.83486356471585621 8.7576359810153326e-17 
	0.84397823175599607 1.6859574728713712e-16 
	0.85355339059328661 2.5370840149334296e-16 
	0.86312724348215197 2.3041486764485975e-16 
	0.87328635650783848 2.056973745016743e-16 
	0.87367173067671278 2.0656148437954202e-16 
	0.89433756729742009 2.5289970577751041e-16 
	0.91656244757733663 5.3706237360069519e-18 
	0.91704465947977976 0 
	0.92885704962615734 0 
	0.94183174699475514 0 
	0.95480199523784359 0 
	0.96924411574815361 0 
	0.96977875606246933 0 
	1 0 
	0.001 
	0.0069501450297584366 
	spline forward { ref 2 } I I I I 
	} 0 0 #
-100 point $-1 -1 -1 $-1 -52.631646584135964 0 -53.431357952510552 #
-101 point $-1 -1 -1 $-1 52.631646661682346 0 53.431358031238801 #
-102 ellipse-curve $-1 -1 -1 $-1 0 450 0 0 1 0 0 0 50 1 I I #
End-of-ACIS-data 